<svg width="990" height="990" viewBox="0 0 990 990" fill="none" xmlns="http://www.w3.org/2000/svg">
<g filter="url(#filter0_f_51_457)">
<mask id="path-1-inside-1_51_457" fill="white">
<path d="M930 495C930 735.244 735.244 930 495 930C254.756 930 60 735.244 60 495C60 254.756 254.756 60 495 60C735.244 60 930 254.756 930 495Z"/>
</mask>
<g clip-path="url(#paint0_angular_51_457_clip_path)" data-figma-skip-parse="true" mask="url(#path-1-inside-1_51_457)"><g transform="matrix(0 0.435 -0.435 0 495 495)"><foreignObject x="-1126.44" y="-1126.44" width="2252.87" height="2252.87"><div xmlns="http://www.w3.org/1999/xhtml" style="background:conic-gradient(from 90deg,rgba(70, 98, 245, 1) 0deg,rgba(134, 86, 236, 1) 25.8818deg,rgba(225, 68, 222, 1) 310.815deg,rgba(44, 104, 250, 1) 349.2deg,rgba(70, 98, 245, 1) 360deg);height:100%;width:100%;opacity:1"></div></foreignObject></g></g><path d="M930 495H875C875 704.868 704.868 875 495 875V930V985C765.62 985 985 765.62 985 495H930ZM495 930V875C285.132 875 115 704.868 115 495H60H5C5 765.62 224.38 985 495 985V930ZM60 495H115C115 285.132 285.132 115 495 115V60V5C224.38 5 5 224.38 5 495H60ZM495 60V115C704.868 115 875 285.132 875 495H930H985C985 224.38 765.62 5 495 5V60Z" data-figma-gradient-fill="{&#34;type&#34;:&#34;GRADIENT_ANGULAR&#34;,&#34;stops&#34;:[{&#34;color&#34;:{&#34;r&#34;:0.52745097875595093,&#34;g&#34;:0.33725491166114807,&#34;b&#34;:0.92549020051956177,&#34;a&#34;:1.0},&#34;position&#34;:0.071893878281116486},{&#34;color&#34;:{&#34;r&#34;:0.88235294818878174,&#34;g&#34;:0.26666668057441711,&#34;b&#34;:0.87058824300765991,&#34;a&#34;:1.0},&#34;position&#34;:0.86337584257125854},{&#34;color&#34;:{&#34;r&#34;:0.17254902422428131,&#34;g&#34;:0.40784314274787903,&#34;b&#34;:0.98039215803146362,&#34;a&#34;:1.0},&#34;position&#34;:0.97000002861022949}],&#34;stopsVar&#34;:[{&#34;color&#34;:{&#34;r&#34;:0.52745097875595093,&#34;g&#34;:0.33725491166114807,&#34;b&#34;:0.92549020051956177,&#34;a&#34;:1.0},&#34;position&#34;:0.071893878281116486},{&#34;color&#34;:{&#34;r&#34;:0.88235294818878174,&#34;g&#34;:0.26666668057441711,&#34;b&#34;:0.87058824300765991,&#34;a&#34;:1.0},&#34;position&#34;:0.86337584257125854},{&#34;color&#34;:{&#34;r&#34;:0.17254902422428131,&#34;g&#34;:0.40784314274787903,&#34;b&#34;:0.98039215803146362,&#34;a&#34;:1.0},&#34;position&#34;:0.97000002861022949}],&#34;transform&#34;:{&#34;m00&#34;:5.3272138219803700e-14,&#34;m01&#34;:-870.0,&#34;m02&#34;:930.0,&#34;m10&#34;:870.0,&#34;m11&#34;:5.3272138219803700e-14,&#34;m12&#34;:60.0},&#34;opacity&#34;:1.0,&#34;blendMode&#34;:&#34;NORMAL&#34;,&#34;visible&#34;:true}" mask="url(#path-1-inside-1_51_457)"/>
</g>
<defs>
<filter id="filter0_f_51_457" x="0" y="0" width="990" height="990" filterUnits="userSpaceOnUse" color-interpolation-filters="sRGB">
<feFlood flood-opacity="0" result="BackgroundImageFix"/>
<feBlend mode="normal" in="SourceGraphic" in2="BackgroundImageFix" result="shape"/>
<feGaussianBlur stdDeviation="25" result="effect1_foregroundBlur_51_457"/>
</filter>
<clipPath id="paint0_angular_51_457_clip_path"><path d="M930 495H875C875 704.868 704.868 875 495 875V930V985C765.62 985 985 765.62 985 495H930ZM495 930V875C285.132 875 115 704.868 115 495H60H5C5 765.62 224.38 985 495 985V930ZM60 495H115C115 285.132 285.132 115 495 115V60V5C224.38 5 5 224.38 5 495H60ZM495 60V115C704.868 115 875 285.132 875 495H930H985C985 224.38 765.62 5 495 5V60Z" mask="url(#path-1-inside-1_51_457)"/></clipPath></defs>
</svg>
